<?xml version="1.0" encoding="UTF-8"?>
<svg width="50px" height="32px" viewBox="0 0 50 32" version="1.1" xmlns="http://www.w3.org/2000/svg" xmlns:xlink="http://www.w3.org/1999/xlink">
    <!-- Generator: Sketch 42 (36781) - http://www.bohemiancoding.com/sketch -->
    <title>2personen</title>
    <desc>Created with Sketch.</desc>
    <defs>
        <polyline id="path-1" points="0.731187841 14 15 14 15 29.3896484 4.03083216 29.3896484"></polyline>
        <mask id="mask-2" maskContentUnits="userSpaceOnUse" maskUnits="objectBoundingBox" x="0" y="0" width="14.2688122" height="15.3896484" fill="white">
            <use xlink:href="#path-1"></use>
        </mask>
    </defs>
    <g id="Page-1" stroke="none" stroke-width="1" fill="none" fill-rule="evenodd">
        <g id="iPhone-7-Copy-2" transform="translate(-29.000000, -242.000000)" stroke-width="2">
            <g id="Group-5" transform="translate(10.000000, 243.000000)">
                <g id="2personen" transform="translate(19.000000, 0.000000)">
                    <path d="M0.105485232,30 L49.9016658,30" id="Line" stroke="#2D2D34" fill-opacity="0" fill="#FFFFFF"></path>
                    <g id="Group-11" transform="translate(6.000000, 0.000000)" stroke="#2D2D34" fill-opacity="0">
                        <path d="M14.9030655,4.73692048 C14.1442634,2.00716228 11.5947717,0 8.56650246,0 C4.93992329,0 2,2.87864324 2,6.42962963 C2,9.98061602 4.93992329,12.8592593 8.56650246,12.8592593 L8.56650246,12.8592593 C10.3176153,12.8592593 11.9086349,12.1881059 13.0858944,11.0941785" id="Oval" fill="#FFFFFF"></path>
                        <polyline id="Rectangle-3" fill="#D8D8D8" points="10.946309 29.3896484 0 29.3896484 0 14 15.5839878 14"></polyline>
                    </g>
                    <g id="Group-9" transform="translate(17.000000, 3.000000)" stroke="#2D2D34" fill-opacity="0">
                        <ellipse id="Oval-Copy" fill="#FFFFFF" cx="8" cy="6" rx="6" ry="6"></ellipse>
                        <rect id="Rectangle-3-Copy" fill="#D8D8D8" x="0" y="13" width="15" height="14"></rect>
                    </g>
                    <g id="Group-10" transform="translate(28.000000, 0.000000)">
                        <path d="M2.39425639,11.3948059 C3.52865682,12.3097751 4.98204417,12.8592593 6.56650246,12.8592593 L6.56650246,12.8592593 C10.1930816,12.8592593 13.1330049,9.98061602 13.1330049,6.42962963 C13.1330049,2.87864324 10.1930816,0 6.56650246,0 C3.69638547,0 1.2563433,1.80298751 0.363290754,4.3153288" id="Oval-Copy" stroke="#2D2D34" fill-opacity="0" fill="#FFFFFF"></path>
                        <g id="Rectangle-3-Copy">
                            <use stroke="#979797" mask="url(#mask-2)" fill-opacity="0" fill="#D8D8D8" fill-rule="evenodd" xlink:href="#path-1"></use>
                            <use stroke="#2D2D34" xlink:href="#path-1"></use>
                        </g>
                    </g>
                </g>
            </g>
        </g>
    </g>
</svg>