<?xml version="1.0" encoding="UTF-8"?>
<svg width="52px" height="18px" viewBox="0 0 52 18" version="1.1" xmlns="http://www.w3.org/2000/svg" xmlns:xlink="http://www.w3.org/1999/xlink">
    <!-- Generator: Sketch 41.2 (35397) - http://www.bohemiancoding.com/sketch -->
    <title>Group 3</title>
    <desc>Created with Sketch.</desc>
    <defs></defs>
    <g id="Page-1" stroke="none" stroke-width="1" fill="none" fill-rule="evenodd" stroke-linecap="round" stroke-linejoin="round">
        <g id="iPhone-7-Copy-2" transform="translate(-207.000000, -251.000000)" stroke="#000000" stroke-width="2" fill="#FFFFFF">
            <g id="Group-6" transform="translate(190.000000, 252.000000)">
                <g id="Group-3" transform="translate(18.000000, 0.000000)">
                    <polygon id="Path-2" points="0 16 8.87977166 6.62068966 11.5384615 14.6534216"></polygon>
                    <polygon id="Path-3" points="7.69230769 4.76355687 11.0821737 15.4482759 19.7802198 15.3324401 18.5001923 1.65517241"></polygon>
                    <polyline id="Path-4" points="24.4615286 14.8965517 19.406676 14.8965517 19.406676 14.8965517 18.1318681 0.837083907 24.4615286 0 30.7692308 0.837083907 29.4944229 14.8965517 24.4395703 14.8965517"></polyline>
                    <polygon id="Path-2-Copy" transform="translate(44.230769, 11.310345) scale(-1, 1) translate(-44.230769, -11.310345) " points="38.4615385 16 47.3413101 6.62068966 50 14.6534216"></polygon>
                    <polygon id="Path-3-Copy" transform="translate(35.714286, 8.551724) scale(-1, 1) translate(-35.714286, -8.551724) " points="29.6703297 4.76355687 33.0601957 15.4482759 41.7582418 15.3324401 40.4782142 1.65517241"></polygon>
                </g>
            </g>
        </g>
    </g>
</svg>